<svg width="2976" height="1646" viewBox="0 0 2976 1646" fill="none" xmlns="http://www.w3.org/2000/svg">
<g filter="url(#filter0_f_801_183)">
<path d="M691 1001C862.208 1001 1001 862.208 1001 691C1001 519.792 862.208 381 691 381C519.792 381 381 519.792 381 691C381 862.208 519.792 1001 691 1001Z" fill="#311A7A" fill-opacity="0.5"/>
</g>
<g filter="url(#filter1_f_801_183)">
<path d="M2308 1265C2466.51 1265 2595 1136.51 2595 978C2595 819.494 2466.51 691 2308 691C2149.49 691 2021 819.494 2021 978C2021 1136.51 2149.49 1265 2308 1265Z" fill="#D868F9" fill-opacity="0.14"/>
</g>
<defs>
<filter id="filter0_f_801_183" x="0" y="0" width="1382" height="1382" filterUnits="userSpaceOnUse" color-interpolation-filters="sRGB">
<feFlood flood-opacity="0" result="BackgroundImageFix"/>
<feBlend mode="normal" in="SourceGraphic" in2="BackgroundImageFix" result="shape"/>
<feGaussianBlur stdDeviation="190.5" result="effect1_foregroundBlur_801_183"/>
</filter>
<filter id="filter1_f_801_183" x="1640" y="310" width="1336" height="1336" filterUnits="userSpaceOnUse" color-interpolation-filters="sRGB">
<feFlood flood-opacity="0" result="BackgroundImageFix"/>
<feBlend mode="normal" in="SourceGraphic" in2="BackgroundImageFix" result="shape"/>
<feGaussianBlur stdDeviation="190.5" result="effect1_foregroundBlur_801_183"/>
</filter>
</defs>
</svg>
