<svg width="1980" height="521" viewBox="0 0 1980 521" fill="none" xmlns="http://www.w3.org/2000/svg">
<g filter="url(#filter0_f_391_580)">
<path d="M590 649C799.868 649 970 478.868 970 269C970 59.1319 799.868 -111 590 -111C380.132 -111 210 59.1319 210 269C210 478.868 380.132 649 590 649Z" fill="url(#paint0_linear_391_580)" fill-opacity="0.45"/>
</g>
<g filter="url(#filter1_f_391_580)">
<path d="M1789 802C1998.87 802 2169 631.868 2169 422C2169 212.132 1998.87 42.0002 1789 42.0002C1579.13 42.0002 1409 212.132 1409 422C1409 631.868 1579.13 802 1789 802Z" fill="#76D1CB" fill-opacity="0.23"/>
</g>
<path d="M169.66 -79.505C180.331 -68.7349 225.776 304.558 542.16 46.579C858.543 -211.4 961.004 -112.295 1011 205.271C1060.99 522.837 1240.91 562.264 1505.52 372.658C1770.13 183.053 1935.13 203.113 1993.62 537.872" stroke="url(#paint1_linear_391_580)" stroke-opacity="0.17"/>
<path d="M54.2106 560.058C69.2762 561.759 338.713 824.088 423.46 424.752C508.207 25.415 650.164 38.3877 888.205 254.452C1126.25 470.516 1291.14 388.43 1378.42 74.8211C1465.69 -238.788 1606.82 -326.608 1862.26 -102.477" stroke="url(#paint2_linear_391_580)" stroke-opacity="0.17"/>
<path d="M160.161 -24.7709C171.396 -14.5906 236.863 355.716 538.906 81.0854C840.949 -193.545 948.594 -100.097 1015.6 214.318C1082.61 528.734 1264.4 558.422 1518.42 354.852C1772.44 151.282 1938.29 162.434 2014.7 493.56" stroke="url(#paint3_linear_391_580)" stroke-opacity="0.17"/>
<path d="M151.219 27.1478C162.965 36.7341 247.473 403.164 534.926 113.297C822.379 -176.569 934.708 -88.8072 1017.87 221.727C1101.03 532.262 1284.11 552.519 1527.27 336.098C1770.44 119.678 1936.64 122.248 2030.06 448.984" stroke="url(#paint4_linear_391_580)" stroke-opacity="0.17"/>
<path d="M142.776 76.3218C154.983 85.3149 257.527 447.112 530.278 143.371C803.029 -160.371 919.565 -78.2769 1018 227.76C1116.43 533.797 1300.28 544.966 1532.44 316.773C1764.59 88.5805 1930.72 82.9195 2040.2 404.631" stroke="url(#paint5_linear_391_580)" stroke-opacity="0.17"/>
<path d="M134.799 122.816C147.417 131.221 266.978 487.758 525.041 171.442C783.104 -144.873 903.396 -68.3894 1016.21 232.644C1129.02 533.677 1313.2 536.128 1534.29 297.199C1755.38 58.2693 1921.05 44.7488 2045.64 360.915" stroke="url(#paint6_linear_391_580)" stroke-opacity="0.17"/>
<path d="M127.246 166.701C140.231 174.527 275.783 525.296 519.286 197.64C762.789 -130.015 886.416 -59.0458 1012.72 236.581C1139.02 532.208 1323.12 526.333 1533.18 277.656C1743.25 28.9786 1908.14 7.98443 2046.89 318.197" stroke="url(#paint7_linear_391_580)" stroke-opacity="0.17"/>
<path d="M120.088 208.046C133.398 215.306 283.921 559.915 513.097 222.083C742.272 -115.749 868.838 -50.1663 1007.75 239.751C1146.65 529.668 1330.33 515.874 1529.5 258.387C1728.67 0.898837 1892.5 -27.1728 2044.48 276.78" stroke="url(#paint8_linear_391_580)" stroke-opacity="0.17"/>
<path d="M113.303 246.91C126.899 253.62 291.386 591.787 506.557 244.868C721.729 -102.051 850.871 -41.6983 1001.52 242.297C1152.16 526.293 1335.12 505.001 1523.59 239.586C1712.07 -25.8295 1874.62 -60.5759 2038.89 236.91" stroke="url(#paint9_linear_391_580)" stroke-opacity="0.17"/>
<path d="M106.875 283.36C120.72 289.538 298.181 621.081 499.755 266.089C701.33 -88.9035 832.712 -33.5971 994.242 244.351C1155.77 522.299 1337.77 493.938 1515.82 221.422C1693.88 -51.0935 1854.96 -92.1093 2030.63 198.791" stroke="url(#paint10_linear_391_580)" stroke-opacity="0.17"/>
<path d="M100.79 317.454C114.852 323.122 304.319 647.953 492.775 285.826C681.232 -76.3013 814.549 -25.837 986.136 246.017C1157.72 517.872 1338.56 482.873 1506.53 204.028C1674.5 -74.8176 1833.97 -121.697 2020.17 162.583" stroke="url(#paint11_linear_391_580)" stroke-opacity="0.17"/>
<path d="M95.0426 349.248C109.291 354.429 309.826 672.546 485.707 304.147C661.588 -64.2516 796.563 -18.4058 977.406 247.382C1158.25 513.17 1337.78 471.968 1496.05 187.506C1654.32 -96.9549 1812.08 -149.296 2007.95 128.408" stroke="url(#paint12_linear_391_580)" stroke-opacity="0.17"/>
<path d="M89.6255 378.797C104.034 383.515 314.728 694.997 478.632 321.116C642.536 -52.7653 778.92 -11.2979 968.243 248.517C1157.57 508.332 1335.67 461.36 1484.68 171.94C1633.69 -117.479 1789.69 -174.882 1994.41 96.358" stroke="url(#paint13_linear_391_580)" stroke-opacity="0.17"/>
<path d="M84.5373 406.152C99.0813 410.434 319.057 715.432 471.631 336.785C624.205 -41.8608 761.775 -4.51815 958.834 249.479C1155.89 503.477 1332.5 451.164 1472.73 157.389C1612.96 -136.385 1767.16 -198.458 1979.96 66.4954" stroke="url(#paint14_linear_391_580)" stroke-opacity="0.17"/>
<path d="M79.7799 431.357C94.4379 435.231 322.852 733.961 464.783 351.198C606.715 -31.5648 745.275 1.91824 949.356 250.309C1153.44 498.699 1328.52 441.47 1460.48 143.891C1592.45 -153.687 1744.85 -220.046 1964.97 38.856" stroke="url(#paint15_linear_391_580)" stroke-opacity="0.17"/>
<path d="M75.3553 454.455C90.1084 457.95 326.152 750.689 458.163 364.393C590.174 -21.9034 729.552 7.99456 939.973 251.039C1150.39 494.082 1323.94 432.356 1448.18 131.473C1572.43 -169.411 1723.07 -239.679 1949.79 13.46" stroke="url(#paint16_linear_391_580)" stroke-opacity="0.17"/>
<path d="M71.2711 475.488C86.1027 478.632 329 765.711 451.843 376.402C574.687 -12.907 714.732 13.6882 930.839 251.691C1146.95 489.693 1318.98 423.882 1436.08 120.146C1553.18 -183.591 1702.11 -257.4 1934.76 -9.69078" stroke="url(#paint17_linear_391_580)" stroke-opacity="0.17"/>
<path d="M67.53 494.489C82.4257 497.315 331.433 779.109 445.886 387.252C560.338 -4.60604 700.923 18.9747 922.092 252.28C1143.26 485.585 1313.85 416.094 1424.39 109.913C1534.94 -196.269 1682.25 -273.26 1920.17 -30.6057" stroke="url(#paint18_linear_391_580)" stroke-opacity="0.17"/>
<path d="M64.1403 511.494C79.0877 514.031 333.494 790.961 440.353 396.965C547.212 2.9688 688.226 23.8285 913.862 252.816C1139.5 481.804 1308.71 409.03 1413.32 100.769C1517.93 -207.491 1663.73 -287.315 1906.29 -49.3032" stroke="url(#paint19_linear_391_580)" stroke-opacity="0.17"/>
<path d="M61.1056 526.529C76.0944 528.809 335.217 801.331 435.297 405.559C535.376 9.78592 676.728 28.2218 906.262 253.302C1135.8 478.383 1303.73 402.714 1403.03 92.7035C1502.33 -217.307 1646.74 -299.622 1893.35 -65.8097" stroke="url(#paint20_linear_391_580)" stroke-opacity="0.17"/>
<path d="M58.4347 539.621C73.456 541.676 336.641 810.278 430.768 413.047C524.896 15.8172 666.507 32.1292 899.394 253.739C1132.28 475.349 1299.06 397.168 1393.7 85.7016C1488.34 -225.765 1631.49 -310.238 1881.58 -80.1536" stroke="url(#paint21_linear_391_580)" stroke-opacity="0.17"/>
<path d="M56.134 550.791C71.1806 552.653 337.796 817.849 426.81 419.442C515.824 21.0348 657.634 35.5253 893.35 254.124C1129.07 472.722 1294.83 392.404 1385.45 79.7464C1476.08 -232.911 1618.14 -319.217 1871.17 -92.3662" stroke="url(#paint22_linear_391_580)" stroke-opacity="0.17"/>
<defs>
<filter id="filter0_f_391_580" x="-154.998" y="-475.998" width="1490" height="1490" filterUnits="userSpaceOnUse" color-interpolation-filters="sRGB">
<feFlood flood-opacity="0" result="BackgroundImageFix"/>
<feBlend mode="normal" in="SourceGraphic" in2="BackgroundImageFix" result="shape"/>
<feGaussianBlur stdDeviation="182.499" result="effect1_foregroundBlur_391_580"/>
</filter>
<filter id="filter1_f_391_580" x="1028" y="-339" width="1522" height="1522" filterUnits="userSpaceOnUse" color-interpolation-filters="sRGB">
<feFlood flood-opacity="0" result="BackgroundImageFix"/>
<feBlend mode="normal" in="SourceGraphic" in2="BackgroundImageFix" result="shape"/>
<feGaussianBlur stdDeviation="190.5" result="effect1_foregroundBlur_391_580"/>
</filter>
<linearGradient id="paint0_linear_391_580" x1="639.383" y1="-75.0087" x2="442.687" y2="499.176" gradientUnits="userSpaceOnUse">
<stop stop-color="#E498FF"/>
<stop offset="1" stop-color="#7B51BF"/>
</linearGradient>
<linearGradient id="paint1_linear_391_580" x1="1157.63" y1="4.68002" x2="1015.59" y2="424.331" gradientUnits="userSpaceOnUse">
<stop stop-color="#3A3084"/>
<stop offset="1" stop-color="#FDE0F7"/>
</linearGradient>
<linearGradient id="paint2_linear_391_580" x1="876.686" y1="6.24597" x2="1029.12" y2="422.235" gradientUnits="userSpaceOnUse">
<stop stop-color="#3A3084"/>
<stop offset="1" stop-color="#FDE0F7"/>
</linearGradient>
<linearGradient id="paint3_linear_391_580" x1="1151.23" y1="6.12723" x2="1031.98" y2="432.814" gradientUnits="userSpaceOnUse">
<stop stop-color="#3A3084"/>
<stop offset="1" stop-color="#FDE0F7"/>
</linearGradient>
<linearGradient id="paint4_linear_391_580" x1="1142.56" y1="6.8077" x2="1045.51" y2="439.085" gradientUnits="userSpaceOnUse">
<stop stop-color="#3A3084"/>
<stop offset="1" stop-color="#FDE0F7"/>
</linearGradient>
<linearGradient id="paint5_linear_391_580" x1="1131.9" y1="6.93126" x2="1056.36" y2="443.483" gradientUnits="userSpaceOnUse">
<stop stop-color="#3A3084"/>
<stop offset="1" stop-color="#FDE0F7"/>
</linearGradient>
<linearGradient id="paint6_linear_391_580" x1="1119.52" y1="6.66932" x2="1064.74" y2="446.308" gradientUnits="userSpaceOnUse">
<stop stop-color="#3A3084"/>
<stop offset="1" stop-color="#FDE0F7"/>
</linearGradient>
<linearGradient id="paint7_linear_391_580" x1="1105.72" y1="6.16839" x2="1070.86" y2="447.834" gradientUnits="userSpaceOnUse">
<stop stop-color="#3A3084"/>
<stop offset="1" stop-color="#FDE0F7"/>
</linearGradient>
<linearGradient id="paint8_linear_391_580" x1="1090.74" y1="5.54889" x2="1074.93" y2="448.305" gradientUnits="userSpaceOnUse">
<stop stop-color="#3A3084"/>
<stop offset="1" stop-color="#FDE0F7"/>
</linearGradient>
<linearGradient id="paint9_linear_391_580" x1="1074.87" y1="4.8979" x2="1077.17" y2="447.93" gradientUnits="userSpaceOnUse">
<stop stop-color="#3A3084"/>
<stop offset="1" stop-color="#FDE0F7"/>
</linearGradient>
<linearGradient id="paint10_linear_391_580" x1="1058.34" y1="4.28896" x2="1077.8" y2="446.9" gradientUnits="userSpaceOnUse">
<stop stop-color="#3A3084"/>
<stop offset="1" stop-color="#FDE0F7"/>
</linearGradient>
<linearGradient id="paint11_linear_391_580" x1="1041.42" y1="3.77148" x2="1077.05" y2="445.375" gradientUnits="userSpaceOnUse">
<stop stop-color="#3A3084"/>
<stop offset="1" stop-color="#FDE0F7"/>
</linearGradient>
<linearGradient id="paint12_linear_391_580" x1="1024.32" y1="3.37693" x2="1075.13" y2="443.492" gradientUnits="userSpaceOnUse">
<stop stop-color="#3A3084"/>
<stop offset="1" stop-color="#FDE0F7"/>
</linearGradient>
<linearGradient id="paint13_linear_391_580" x1="1007.26" y1="3.12577" x2="1072.24" y2="441.373" gradientUnits="userSpaceOnUse">
<stop stop-color="#3A3084"/>
<stop offset="1" stop-color="#FDE0F7"/>
</linearGradient>
<linearGradient id="paint14_linear_391_580" x1="990.442" y1="3.02469" x2="1068.59" y2="439.117" gradientUnits="userSpaceOnUse">
<stop stop-color="#3A3084"/>
<stop offset="1" stop-color="#FDE0F7"/>
</linearGradient>
<linearGradient id="paint15_linear_391_580" x1="974.063" y1="3.06696" x2="1064.37" y2="436.804" gradientUnits="userSpaceOnUse">
<stop stop-color="#3A3084"/>
<stop offset="1" stop-color="#FDE0F7"/>
</linearGradient>
<linearGradient id="paint16_linear_391_580" x1="958.294" y1="3.24166" x2="1059.76" y2="434.505" gradientUnits="userSpaceOnUse">
<stop stop-color="#3A3084"/>
<stop offset="1" stop-color="#FDE0F7"/>
</linearGradient>
<linearGradient id="paint17_linear_391_580" x1="943.298" y1="3.52983" x2="1054.93" y2="432.275" gradientUnits="userSpaceOnUse">
<stop stop-color="#3A3084"/>
<stop offset="1" stop-color="#FDE0F7"/>
</linearGradient>
<linearGradient id="paint18_linear_391_580" x1="929.217" y1="3.90902" x2="1050.03" y2="430.157" gradientUnits="userSpaceOnUse">
<stop stop-color="#3A3084"/>
<stop offset="1" stop-color="#FDE0F7"/>
</linearGradient>
<linearGradient id="paint19_linear_391_580" x1="916.187" y1="4.35408" x2="1045.21" y2="428.188" gradientUnits="userSpaceOnUse">
<stop stop-color="#3A3084"/>
<stop offset="1" stop-color="#FDE0F7"/>
</linearGradient>
<linearGradient id="paint20_linear_391_580" x1="904.321" y1="4.83677" x2="1040.6" y2="426.393" gradientUnits="userSpaceOnUse">
<stop stop-color="#3A3084"/>
<stop offset="1" stop-color="#FDE0F7"/>
</linearGradient>
<linearGradient id="paint21_linear_391_580" x1="893.724" y1="5.33064" x2="1036.32" y2="424.794" gradientUnits="userSpaceOnUse">
<stop stop-color="#3A3084"/>
<stop offset="1" stop-color="#FDE0F7"/>
</linearGradient>
<linearGradient id="paint22_linear_391_580" x1="884.487" y1="5.80839" x2="1032.46" y2="423.404" gradientUnits="userSpaceOnUse">
<stop stop-color="#3A3084"/>
<stop offset="1" stop-color="#FDE0F7"/>
</linearGradient>
</defs>
</svg>
